<svg xmlns="http://www.w3.org/2000/svg" xmlns:xlink="http://www.w3.org/1999/xlink" width="1033" zoomAndPan="magnify" viewBox="0 0 774.75 164.249993" height="219" preserveAspectRatio="xMidYMid meet" version="1.0"><defs><g/><clipPath id="26f91dbbd6"><path d="M 1.636719 0 L 160.660156 0 L 160.660156 162 L 1.636719 162 Z M 1.636719 0 " clip-rule="nonzero"/></clipPath></defs><g clip-path="url(#26f91dbbd6)"><path fill="#278d46" d="M 160.65625 79.71875 C 160.65625 123.730469 125.0625 159.410156 81.160156 159.410156 C 74.730469 159.417969 68.398438 158.65625 62.15625 157.117188 C 55.914062 155.582031 49.945312 153.3125 44.257812 150.320312 C 44.226562 150.332031 44.195312 150.347656 44.160156 150.359375 L 20.199219 160.34375 C 12.699219 163.464844 5.136719 156.027344 8.109375 148.453125 L 16.75 126.4375 C 14.304688 123.0625 12.144531 119.515625 10.257812 115.800781 C 8.371094 112.085938 6.789062 108.242188 5.507812 104.277344 C 4.226562 100.308594 3.265625 96.269531 2.621094 92.148438 C 1.976562 88.03125 1.65625 83.886719 1.664062 79.71875 C 1.664062 35.707031 37.253906 0.0273438 81.160156 0.0273438 C 125.0625 0.0273438 160.65625 35.707031 160.65625 79.71875 Z M 160.65625 79.71875 " fill-opacity="1" fill-rule="nonzero"/></g><path fill="#ffffff" d="M 150.339844 79.71875 C 150.339844 80.851562 150.3125 81.988281 150.257812 83.121094 C 150.203125 84.253906 150.117188 85.386719 150.007812 86.515625 C 149.894531 87.644531 149.757812 88.773438 149.589844 89.894531 C 149.425781 91.015625 149.230469 92.136719 149.011719 93.246094 C 148.789062 94.359375 148.542969 95.46875 148.265625 96.570312 C 147.992188 97.671875 147.691406 98.761719 147.363281 99.851562 C 147.03125 100.9375 146.675781 102.011719 146.296875 103.082031 C 145.914062 104.152344 145.507812 105.210938 145.074219 106.257812 C 144.640625 107.304688 144.183594 108.34375 143.699219 109.371094 C 143.214844 110.394531 142.707031 111.410156 142.171875 112.410156 C 141.636719 113.410156 141.078125 114.398438 140.496094 115.371094 C 139.914062 116.34375 139.308594 117.304688 138.679688 118.246094 C 138.050781 119.191406 137.398438 120.117188 136.726562 121.03125 C 136.050781 121.941406 135.355469 122.835938 134.636719 123.714844 C 133.917969 124.589844 133.179688 125.449219 132.417969 126.292969 C 131.660156 127.132812 130.878906 127.953125 130.078125 128.757812 C 129.277344 129.558594 128.457031 130.339844 127.617188 131.101562 C 126.78125 131.867188 125.921875 132.605469 125.046875 133.328125 C 124.171875 134.046875 123.28125 134.746094 122.371094 135.421875 C 121.460938 136.097656 120.535156 136.75 119.59375 137.382812 C 118.652344 138.011719 117.695312 138.617188 116.726562 139.203125 C 115.753906 139.785156 114.769531 140.34375 113.769531 140.878906 C 112.773438 141.414062 111.761719 141.925781 110.738281 142.410156 C 109.714844 142.894531 108.679688 143.355469 107.632812 143.789062 C 106.585938 144.222656 105.53125 144.632812 104.464844 145.015625 C 103.398438 145.398438 102.324219 145.753906 101.242188 146.082031 C 100.15625 146.410156 99.066406 146.714844 97.96875 146.988281 C 96.871094 147.265625 95.765625 147.515625 94.65625 147.734375 C 93.542969 147.957031 92.429688 148.152344 91.308594 148.316406 C 90.191406 148.484375 89.066406 148.625 87.941406 148.734375 C 86.8125 148.847656 85.683594 148.929688 84.554688 148.984375 C 83.421875 149.039062 82.289062 149.070312 81.160156 149.070312 C 80.027344 149.070312 78.894531 149.039062 77.765625 148.984375 C 76.632812 148.929688 75.503906 148.847656 74.378906 148.734375 C 73.25 148.625 72.128906 148.484375 71.007812 148.316406 C 69.886719 148.152344 68.773438 147.957031 67.660156 147.734375 C 66.550781 147.515625 65.445312 147.265625 64.347656 146.988281 C 63.25 146.714844 62.160156 146.410156 61.078125 146.082031 C 59.992188 145.753906 58.917969 145.398438 57.851562 145.015625 C 56.785156 144.632812 55.730469 144.222656 54.683594 143.789062 C 53.636719 143.355469 52.601562 142.894531 51.578125 142.410156 C 50.554688 141.925781 49.546875 141.414062 48.546875 140.878906 C 47.546875 140.34375 46.5625 139.785156 45.59375 139.203125 C 44.621094 138.617188 43.664062 138.011719 42.722656 137.382812 C 41.78125 136.75 40.855469 136.097656 39.949219 135.421875 C 39.039062 134.746094 38.144531 134.046875 37.269531 133.328125 C 36.394531 132.605469 35.539062 131.867188 34.699219 131.101562 C 33.859375 130.339844 33.039062 129.558594 32.238281 128.757812 C 31.4375 127.953125 30.660156 127.132812 29.898438 126.292969 C 29.136719 125.449219 28.398438 124.589844 27.679688 123.714844 C 26.960938 122.835938 26.265625 121.941406 25.589844 121.03125 C 24.917969 120.117188 24.265625 119.191406 23.636719 118.246094 C 23.007812 117.304688 22.402344 116.34375 21.820312 115.371094 C 21.238281 114.398438 20.679688 113.410156 20.144531 112.410156 C 19.613281 111.410156 19.101562 110.394531 18.621094 109.371094 C 18.136719 108.34375 17.675781 107.304688 17.242188 106.257812 C 16.808594 105.210938 16.402344 104.152344 16.019531 103.082031 C 15.640625 102.011719 15.285156 100.9375 14.957031 99.851562 C 14.628906 98.761719 14.324219 97.671875 14.050781 96.570312 C 13.773438 95.46875 13.527344 94.359375 13.304688 93.246094 C 13.085938 92.136719 12.890625 91.015625 12.726562 89.894531 C 12.558594 88.773438 12.421875 87.644531 12.308594 86.515625 C 12.199219 85.386719 12.117188 84.253906 12.058594 83.121094 C 12.003906 81.988281 11.976562 80.851562 11.976562 79.71875 C 11.976562 78.582031 12.003906 77.449219 12.058594 76.316406 C 12.117188 75.183594 12.199219 74.050781 12.308594 72.921875 C 12.421875 71.792969 12.558594 70.664062 12.726562 69.542969 C 12.890625 68.421875 13.085938 67.300781 13.304688 66.1875 C 13.527344 65.074219 13.773438 63.96875 14.050781 62.867188 C 14.324219 61.765625 14.628906 60.671875 14.957031 59.585938 C 15.285156 58.5 15.640625 57.421875 16.019531 56.355469 C 16.402344 55.285156 16.808594 54.226562 17.242188 53.179688 C 17.675781 52.128906 18.136719 51.09375 18.621094 50.066406 C 19.101562 49.042969 19.613281 48.027344 20.144531 47.027344 C 20.679688 46.027344 21.238281 45.039062 21.820312 44.066406 C 22.402344 43.089844 23.007812 42.132812 23.636719 41.191406 C 24.265625 40.246094 24.917969 39.316406 25.589844 38.40625 C 26.265625 37.496094 26.960938 36.601562 27.679688 35.722656 C 28.398438 34.847656 29.136719 33.988281 29.898438 33.144531 C 30.660156 32.304688 31.4375 31.484375 32.238281 30.679688 C 33.039062 29.878906 33.859375 29.09375 34.699219 28.332031 C 35.539062 27.570312 36.394531 26.828125 37.269531 26.109375 C 38.144531 25.390625 39.039062 24.691406 39.949219 24.015625 C 40.855469 23.339844 41.78125 22.6875 42.722656 22.054688 C 43.664062 21.425781 44.621094 20.816406 45.59375 20.234375 C 46.5625 19.652344 47.546875 19.09375 48.546875 18.558594 C 49.546875 18.023438 50.554688 17.511719 51.578125 17.027344 C 52.601562 16.542969 53.636719 16.082031 54.683594 15.648438 C 55.730469 15.210938 56.785156 14.804688 57.851562 14.421875 C 58.917969 14.039062 59.992188 13.683594 61.078125 13.355469 C 62.160156 13.023438 63.25 12.722656 64.347656 12.445312 C 65.445312 12.171875 66.550781 11.921875 67.660156 11.699219 C 68.773438 11.480469 69.886719 11.285156 71.007812 11.117188 C 72.128906 10.953125 73.25 10.8125 74.378906 10.703125 C 75.503906 10.589844 76.632812 10.507812 77.765625 10.453125 C 78.894531 10.394531 80.027344 10.367188 81.160156 10.367188 C 82.289062 10.367188 83.421875 10.394531 84.554688 10.453125 C 85.683594 10.507812 86.8125 10.589844 87.941406 10.703125 C 89.066406 10.8125 90.191406 10.953125 91.308594 11.117188 C 92.429688 11.285156 93.542969 11.480469 94.65625 11.699219 C 95.765625 11.921875 96.871094 12.171875 97.96875 12.445312 C 99.066406 12.722656 100.15625 13.023438 101.242188 13.355469 C 102.324219 13.683594 103.398438 14.039062 104.464844 14.421875 C 105.53125 14.804688 106.585938 15.210938 107.632812 15.648438 C 108.679688 16.082031 109.714844 16.542969 110.738281 17.027344 C 111.761719 17.511719 112.773438 18.023438 113.769531 18.558594 C 114.769531 19.09375 115.753906 19.652344 116.726562 20.234375 C 117.695312 20.816406 118.652344 21.425781 119.59375 22.054688 C 120.535156 22.6875 121.460938 23.339844 122.371094 24.015625 C 123.28125 24.691406 124.171875 25.390625 125.046875 26.109375 C 125.921875 26.828125 126.78125 27.570312 127.617188 28.332031 C 128.457031 29.09375 129.277344 29.878906 130.078125 30.679688 C 130.878906 31.484375 131.660156 32.304688 132.417969 33.144531 C 133.179688 33.988281 133.917969 34.847656 134.636719 35.722656 C 135.355469 36.601562 136.050781 37.496094 136.726562 38.40625 C 137.398438 39.316406 138.050781 40.246094 138.679688 41.191406 C 139.308594 42.132812 139.914062 43.089844 140.496094 44.066406 C 141.078125 45.039062 141.636719 46.027344 142.171875 47.027344 C 142.707031 48.027344 143.214844 49.042969 143.699219 50.066406 C 144.183594 51.09375 144.640625 52.128906 145.074219 53.179688 C 145.507812 54.226562 145.914062 55.285156 146.296875 56.355469 C 146.675781 57.421875 147.03125 58.5 147.363281 59.585938 C 147.691406 60.671875 147.992188 61.765625 148.265625 62.867188 C 148.542969 63.96875 148.789062 65.074219 149.011719 66.1875 C 149.230469 67.300781 149.425781 68.421875 149.589844 69.542969 C 149.757812 70.664062 149.894531 71.792969 150.007812 72.921875 C 150.117188 74.050781 150.203125 75.183594 150.257812 76.316406 C 150.3125 77.449219 150.339844 78.582031 150.339844 79.71875 Z M 150.339844 79.71875 " fill-opacity="1" fill-rule="nonzero"/><path fill="#278d46" d="M 140.652344 79.71875 C 140.652344 81.671875 140.554688 83.621094 140.363281 85.5625 C 140.171875 87.507812 139.886719 89.4375 139.507812 91.351562 C 139.128906 93.269531 138.65625 95.160156 138.089844 97.03125 C 137.523438 98.898438 136.867188 100.734375 136.121094 102.539062 C 135.375 104.34375 134.542969 106.109375 133.625 107.832031 C 132.707031 109.554688 131.707031 111.226562 130.625 112.851562 C 129.542969 114.476562 128.382812 116.042969 127.148438 117.550781 C 125.910156 119.0625 124.605469 120.507812 123.226562 121.886719 C 121.847656 123.269531 120.40625 124.578125 118.898438 125.820312 C 117.394531 127.058594 115.832031 128.21875 114.210938 129.304688 C 112.589844 130.390625 110.921875 131.394531 109.203125 132.3125 C 107.484375 133.234375 105.726562 134.066406 103.925781 134.816406 C 102.125 135.5625 100.292969 136.21875 98.429688 136.789062 C 96.5625 137.355469 94.675781 137.828125 92.765625 138.210938 C 90.855469 138.589844 88.929688 138.875 86.988281 139.066406 C 85.050781 139.257812 83.105469 139.355469 81.160156 139.355469 C 79.210938 139.355469 77.265625 139.257812 75.328125 139.066406 C 73.386719 138.875 71.464844 138.589844 69.550781 138.210938 C 67.640625 137.828125 65.753906 137.355469 63.890625 136.789062 C 62.023438 136.21875 60.191406 135.5625 58.390625 134.816406 C 56.59375 134.066406 54.832031 133.234375 53.113281 132.3125 C 51.394531 131.394531 49.726562 130.390625 48.105469 129.304688 C 46.488281 128.21875 44.921875 127.058594 43.417969 125.820312 C 41.910156 124.578125 40.46875 123.269531 39.089844 121.886719 C 37.714844 120.507812 36.40625 119.0625 35.171875 117.550781 C 33.933594 116.042969 32.777344 114.476562 31.691406 112.851562 C 30.609375 111.226562 29.609375 109.554688 28.691406 107.832031 C 27.773438 106.109375 26.941406 104.34375 26.195312 102.539062 C 25.449219 100.734375 24.792969 98.898438 24.226562 97.03125 C 23.664062 95.160156 23.191406 93.269531 22.808594 91.351562 C 22.429688 89.4375 22.144531 87.507812 21.953125 85.5625 C 21.761719 83.621094 21.667969 81.671875 21.667969 79.71875 C 21.667969 77.765625 21.761719 75.816406 21.953125 73.871094 C 22.144531 71.929688 22.429688 70 22.808594 68.082031 C 23.191406 66.167969 23.664062 64.277344 24.226562 62.40625 C 24.792969 60.539062 25.449219 58.699219 26.195312 56.894531 C 26.941406 55.089844 27.773438 53.328125 28.691406 51.605469 C 29.609375 49.882812 30.609375 48.210938 31.691406 46.585938 C 32.777344 44.960938 33.933594 43.394531 35.171875 41.886719 C 36.40625 40.375 37.714844 38.929688 39.089844 37.546875 C 40.46875 36.167969 41.910156 34.859375 43.417969 33.617188 C 44.921875 32.378906 46.488281 31.21875 48.105469 30.132812 C 49.726562 29.046875 51.394531 28.042969 53.113281 27.125 C 54.832031 26.203125 56.59375 25.367188 58.390625 24.621094 C 60.191406 23.875 62.023438 23.214844 63.890625 22.648438 C 65.753906 22.082031 67.640625 21.609375 69.550781 21.226562 C 71.464844 20.847656 73.386719 20.558594 75.328125 20.367188 C 77.265625 20.175781 79.210938 20.082031 81.160156 20.082031 C 83.105469 20.082031 85.050781 20.175781 86.988281 20.367188 C 88.929688 20.558594 90.855469 20.847656 92.765625 21.226562 C 94.675781 21.609375 96.5625 22.082031 98.429688 22.648438 C 100.292969 23.214844 102.125 23.875 103.925781 24.621094 C 105.726562 25.367188 107.484375 26.203125 109.203125 27.125 C 110.921875 28.042969 112.589844 29.046875 114.210938 30.132812 C 115.832031 31.21875 117.394531 32.378906 118.898438 33.617188 C 120.40625 34.859375 121.847656 36.167969 123.226562 37.546875 C 124.605469 38.929688 125.910156 40.375 127.148438 41.886719 C 128.382812 43.394531 129.542969 44.960938 130.625 46.585938 C 131.707031 48.210938 132.707031 49.882812 133.625 51.605469 C 134.542969 53.328125 135.375 55.09375 136.121094 56.894531 C 136.867188 58.699219 137.523438 60.539062 138.089844 62.40625 C 138.65625 64.277344 139.128906 66.167969 139.507812 68.082031 C 139.886719 70 140.171875 71.929688 140.363281 73.871094 C 140.554688 75.816406 140.652344 77.765625 140.652344 79.71875 Z M 140.652344 79.71875 " fill-opacity="1" fill-rule="nonzero"/><path fill="#ffffff" d="M 73.519531 60.238281 L 71.203125 50.4375 C 71.070312 49.878906 70.882812 49.339844 70.636719 48.820312 C 70.390625 48.300781 70.09375 47.8125 69.746094 47.355469 C 69.398438 46.898438 69.003906 46.484375 68.566406 46.109375 C 68.132812 45.738281 67.660156 45.414062 67.15625 45.140625 C 66.652344 44.867188 66.125 44.648438 65.574219 44.484375 C 65.023438 44.324219 64.464844 44.222656 63.890625 44.179688 C 63.320312 44.136719 62.75 44.152344 62.179688 44.230469 C 61.613281 44.308594 61.058594 44.441406 60.519531 44.636719 L 55.179688 46.566406 C 54.746094 46.722656 54.332031 46.910156 53.933594 47.136719 C 53.53125 47.363281 53.15625 47.625 52.800781 47.914062 C 52.445312 48.203125 52.113281 48.523438 51.8125 48.867188 C 51.507812 49.214844 51.238281 49.585938 51 49.976562 C 50.757812 50.367188 50.550781 50.777344 50.382812 51.203125 C 50.210938 51.632812 50.074219 52.070312 49.980469 52.519531 C 49.882812 52.96875 49.824219 53.425781 49.800781 53.882812 C 49.78125 54.34375 49.800781 54.800781 49.855469 55.257812 C 51.714844 70.414062 60.28125 107.078125 99.671875 115.132812 C 100.453125 115.292969 101.242188 115.335938 102.035156 115.265625 C 102.832031 115.191406 103.597656 115.007812 104.339844 114.707031 C 105.078125 114.410156 105.761719 114.011719 106.386719 113.515625 C 107.007812 113.015625 107.546875 112.4375 108.003906 111.78125 L 111.066406 107.339844 C 111.371094 106.898438 111.628906 106.433594 111.84375 105.941406 C 112.054688 105.449219 112.21875 104.941406 112.332031 104.417969 C 112.445312 103.894531 112.503906 103.363281 112.515625 102.828125 C 112.523438 102.292969 112.480469 101.761719 112.382812 101.234375 C 112.289062 100.707031 112.140625 100.191406 111.945312 99.695312 C 111.75 99.195312 111.507812 98.71875 111.214844 98.269531 C 110.925781 97.820312 110.59375 97.402344 110.222656 97.015625 C 109.851562 96.628906 109.445312 96.285156 109.007812 95.980469 L 108.953125 95.945312 L 102.21875 91.347656 C 101.492188 90.851562 100.703125 90.480469 99.851562 90.238281 C 99.003906 90 98.140625 89.898438 97.257812 89.941406 C 96.375 89.980469 95.523438 90.160156 94.703125 90.480469 C 93.878906 90.796875 93.128906 91.238281 92.449219 91.800781 C 91.773438 92.363281 91.027344 92.800781 90.210938 93.121094 C 89.390625 93.4375 88.546875 93.621094 87.671875 93.664062 C 86.792969 93.710938 85.933594 93.613281 85.089844 93.378906 C 84.246094 93.144531 83.457031 92.78125 82.730469 92.292969 C 78.632812 89.527344 73.089844 84.9375 69.488281 78.578125 C 69.082031 77.863281 68.789062 77.105469 68.609375 76.304688 C 68.429688 75.503906 68.375 74.695312 68.4375 73.875 C 68.503906 73.058594 68.683594 72.265625 68.988281 71.503906 C 69.289062 70.738281 69.695312 70.035156 70.207031 69.394531 L 71.941406 67.238281 C 72.730469 66.253906 73.261719 65.148438 73.539062 63.921875 C 73.816406 62.691406 73.808594 61.464844 73.519531 60.238281 Z M 73.519531 60.238281 " fill-opacity="1" fill-rule="nonzero"/><g fill="#278d46" fill-opacity="1"><g transform="translate(169.212981, 95.635568)"><g><path d="M 6.4375 -51.171875 L 22.359375 -51.171875 C 29.617188 -51.171875 34.882812 -50.132812 38.15625 -48.0625 C 41.4375 -46 43.078125 -42.71875 43.078125 -38.21875 C 43.078125 -35.15625 42.359375 -32.644531 40.921875 -30.6875 C 39.492188 -28.726562 37.585938 -27.550781 35.203125 -27.15625 L 35.203125 -26.8125 C 38.453125 -26.082031 40.789062 -24.722656 42.21875 -22.734375 C 43.65625 -20.753906 44.375 -18.125 44.375 -14.84375 C 44.375 -10.175781 42.6875 -6.535156 39.3125 -3.921875 C 35.945312 -1.304688 31.367188 0 25.578125 0 L 6.4375 0 Z M 17.28125 -30.90625 L 23.59375 -30.90625 C 26.53125 -30.90625 28.65625 -31.359375 29.96875 -32.265625 C 31.289062 -33.171875 31.953125 -34.675781 31.953125 -36.78125 C 31.953125 -38.738281 31.234375 -40.144531 29.796875 -41 C 28.359375 -41.851562 26.09375 -42.28125 23 -42.28125 L 17.28125 -42.28125 Z M 17.28125 -22.296875 L 17.28125 -8.953125 L 24.359375 -8.953125 C 27.347656 -8.953125 29.550781 -9.523438 30.96875 -10.671875 C 32.394531 -11.816406 33.109375 -13.566406 33.109375 -15.921875 C 33.109375 -20.171875 30.070312 -22.296875 24 -22.296875 Z M 17.28125 -22.296875 "/></g></g><g transform="translate(217.368091, 95.635568)"><g><path d="M 33.3125 0 L 31.875 -5 L 31.328125 -5 C 30.179688 -3.1875 28.554688 -1.78125 26.453125 -0.78125 C 24.359375 0.207031 21.96875 0.703125 19.28125 0.703125 C 14.6875 0.703125 11.222656 -0.523438 8.890625 -2.984375 C 6.554688 -5.453125 5.390625 -8.992188 5.390625 -13.609375 L 5.390625 -39.125 L 16.0625 -39.125 L 16.0625 -16.265625 C 16.0625 -13.441406 16.5625 -11.320312 17.5625 -9.90625 C 18.570312 -8.5 20.171875 -7.796875 22.359375 -7.796875 C 25.347656 -7.796875 27.503906 -8.789062 28.828125 -10.78125 C 30.160156 -12.78125 30.828125 -16.09375 30.828125 -20.71875 L 30.828125 -39.125 L 41.5 -39.125 L 41.5 0 Z M 33.3125 0 "/></g></g><g transform="translate(264.473307, 95.635568)"><g><path d="M 22.078125 -7.796875 C 23.941406 -7.796875 26.179688 -8.207031 28.796875 -9.03125 L 28.796875 -1.078125 C 26.140625 0.109375 22.875 0.703125 19 0.703125 C 14.726562 0.703125 11.617188 -0.375 9.671875 -2.53125 C 7.722656 -4.695312 6.75 -7.9375 6.75 -12.25 L 6.75 -31.109375 L 1.640625 -31.109375 L 1.640625 -35.625 L 7.53125 -39.203125 L 10.609375 -47.453125 L 17.421875 -47.453125 L 17.421875 -39.125 L 28.375 -39.125 L 28.375 -31.109375 L 17.421875 -31.109375 L 17.421875 -12.25 C 17.421875 -10.726562 17.847656 -9.601562 18.703125 -8.875 C 19.554688 -8.15625 20.679688 -7.796875 22.078125 -7.796875 Z M 22.078125 -7.796875 "/></g></g><g transform="translate(295.585147, 95.635568)"><g><path d="M 33.3125 0 L 31.875 -5 L 31.328125 -5 C 30.179688 -3.1875 28.554688 -1.78125 26.453125 -0.78125 C 24.359375 0.207031 21.96875 0.703125 19.28125 0.703125 C 14.6875 0.703125 11.222656 -0.523438 8.890625 -2.984375 C 6.554688 -5.453125 5.390625 -8.992188 5.390625 -13.609375 L 5.390625 -39.125 L 16.0625 -39.125 L 16.0625 -16.265625 C 16.0625 -13.441406 16.5625 -11.320312 17.5625 -9.90625 C 18.570312 -8.5 20.171875 -7.796875 22.359375 -7.796875 C 25.347656 -7.796875 27.503906 -8.789062 28.828125 -10.78125 C 30.160156 -12.78125 30.828125 -16.09375 30.828125 -20.71875 L 30.828125 -39.125 L 41.5 -39.125 L 41.5 0 Z M 33.3125 0 "/></g></g><g transform="translate(342.690363, 95.635568)"><g><path d="M 41.71875 0 L 31.046875 0 L 31.046875 -22.859375 C 31.046875 -28.503906 28.945312 -31.328125 24.75 -31.328125 C 21.757812 -31.328125 19.597656 -30.3125 18.265625 -28.28125 C 16.929688 -26.25 16.265625 -22.957031 16.265625 -18.40625 L 16.265625 0 L 5.59375 0 L 5.59375 -54.453125 L 16.265625 -54.453125 L 16.265625 -43.359375 C 16.265625 -42.492188 16.1875 -40.460938 16.03125 -37.265625 L 15.78125 -34.125 L 16.34375 -34.125 C 18.71875 -37.945312 22.5 -39.859375 27.6875 -39.859375 C 32.28125 -39.859375 35.765625 -38.617188 38.140625 -36.140625 C 40.523438 -33.671875 41.71875 -30.128906 41.71875 -25.515625 Z M 41.71875 0 "/></g></g><g transform="translate(389.79558, 95.635568)"><g/></g><g transform="translate(408.413689, 95.635568)"><g><path d="M 6.4375 -51.171875 L 22.359375 -51.171875 C 29.617188 -51.171875 34.882812 -50.132812 38.15625 -48.0625 C 41.4375 -46 43.078125 -42.71875 43.078125 -38.21875 C 43.078125 -35.15625 42.359375 -32.644531 40.921875 -30.6875 C 39.492188 -28.726562 37.585938 -27.550781 35.203125 -27.15625 L 35.203125 -26.8125 C 38.453125 -26.082031 40.789062 -24.722656 42.21875 -22.734375 C 43.65625 -20.753906 44.375 -18.125 44.375 -14.84375 C 44.375 -10.175781 42.6875 -6.535156 39.3125 -3.921875 C 35.945312 -1.304688 31.367188 0 25.578125 0 L 6.4375 0 Z M 17.28125 -30.90625 L 23.59375 -30.90625 C 26.53125 -30.90625 28.65625 -31.359375 29.96875 -32.265625 C 31.289062 -33.171875 31.953125 -34.675781 31.953125 -36.78125 C 31.953125 -38.738281 31.234375 -40.144531 29.796875 -41 C 28.359375 -41.851562 26.09375 -42.28125 23 -42.28125 L 17.28125 -42.28125 Z M 17.28125 -22.296875 L 17.28125 -8.953125 L 24.359375 -8.953125 C 27.347656 -8.953125 29.550781 -9.523438 30.96875 -10.671875 C 32.394531 -11.816406 33.109375 -13.566406 33.109375 -15.921875 C 33.109375 -20.171875 30.070312 -22.296875 24 -22.296875 Z M 17.28125 -22.296875 "/></g></g><g transform="translate(456.568799, 95.635568)"><g><path d="M 30.453125 0 L 28.375 -5.3125 L 28.109375 -5.3125 C 26.304688 -3.050781 24.453125 -1.484375 22.546875 -0.609375 C 20.648438 0.265625 18.175781 0.703125 15.125 0.703125 C 11.363281 0.703125 8.40625 -0.367188 6.25 -2.515625 C 4.09375 -4.660156 3.015625 -7.71875 3.015625 -11.6875 C 3.015625 -15.84375 4.460938 -18.90625 7.359375 -20.875 C 10.265625 -22.84375 14.644531 -23.929688 20.5 -24.140625 L 27.296875 -24.359375 L 27.296875 -26.078125 C 27.296875 -30.035156 25.265625 -32.015625 21.203125 -32.015625 C 18.078125 -32.015625 14.40625 -31.070312 10.1875 -29.1875 L 6.65625 -36.390625 C 11.15625 -38.753906 16.144531 -39.9375 21.625 -39.9375 C 26.875 -39.9375 30.898438 -38.789062 33.703125 -36.5 C 36.503906 -34.21875 37.90625 -30.742188 37.90625 -26.078125 L 37.90625 0 Z M 27.296875 -18.125 L 23.171875 -17.984375 C 20.066406 -17.890625 17.753906 -17.328125 16.234375 -16.296875 C 14.722656 -15.273438 13.96875 -13.71875 13.96875 -11.625 C 13.96875 -8.613281 15.691406 -7.109375 19.140625 -7.109375 C 21.617188 -7.109375 23.597656 -7.816406 25.078125 -9.234375 C 26.554688 -10.660156 27.296875 -12.550781 27.296875 -14.90625 Z M 27.296875 -18.125 "/></g></g><g transform="translate(499.859403, 95.635568)"><g><path d="M 41.71875 0 L 31.046875 0 L 31.046875 -22.859375 C 31.046875 -25.679688 30.539062 -27.796875 29.53125 -29.203125 C 28.53125 -30.617188 26.9375 -31.328125 24.75 -31.328125 C 21.757812 -31.328125 19.597656 -30.328125 18.265625 -28.328125 C 16.929688 -26.335938 16.265625 -23.03125 16.265625 -18.40625 L 16.265625 0 L 5.59375 0 L 5.59375 -39.125 L 13.75 -39.125 L 15.1875 -34.125 L 15.78125 -34.125 C 16.96875 -36.007812 18.601562 -37.4375 20.6875 -38.40625 C 22.78125 -39.375 25.160156 -39.859375 27.828125 -39.859375 C 32.367188 -39.859375 35.816406 -38.625 38.171875 -36.15625 C 40.535156 -33.695312 41.71875 -30.148438 41.71875 -25.515625 Z M 41.71875 0 "/></g></g><g transform="translate(546.964619, 95.635568)"><g><path d="M 22.078125 -7.796875 C 23.941406 -7.796875 26.179688 -8.207031 28.796875 -9.03125 L 28.796875 -1.078125 C 26.140625 0.109375 22.875 0.703125 19 0.703125 C 14.726562 0.703125 11.617188 -0.375 9.671875 -2.53125 C 7.722656 -4.695312 6.75 -7.9375 6.75 -12.25 L 6.75 -31.109375 L 1.640625 -31.109375 L 1.640625 -35.625 L 7.53125 -39.203125 L 10.609375 -47.453125 L 17.421875 -47.453125 L 17.421875 -39.125 L 28.375 -39.125 L 28.375 -31.109375 L 17.421875 -31.109375 L 17.421875 -12.25 C 17.421875 -10.726562 17.847656 -9.601562 18.703125 -8.875 C 19.554688 -8.15625 20.679688 -7.796875 22.078125 -7.796875 Z M 22.078125 -7.796875 "/></g></g><g transform="translate(578.076459, 95.635568)"><g><path d="M 33.3125 0 L 31.875 -5 L 31.328125 -5 C 30.179688 -3.1875 28.554688 -1.78125 26.453125 -0.78125 C 24.359375 0.207031 21.96875 0.703125 19.28125 0.703125 C 14.6875 0.703125 11.222656 -0.523438 8.890625 -2.984375 C 6.554688 -5.453125 5.390625 -8.992188 5.390625 -13.609375 L 5.390625 -39.125 L 16.0625 -39.125 L 16.0625 -16.265625 C 16.0625 -13.441406 16.5625 -11.320312 17.5625 -9.90625 C 18.570312 -8.5 20.171875 -7.796875 22.359375 -7.796875 C 25.347656 -7.796875 27.503906 -8.789062 28.828125 -10.78125 C 30.160156 -12.78125 30.828125 -16.09375 30.828125 -20.71875 L 30.828125 -39.125 L 41.5 -39.125 L 41.5 0 Z M 33.3125 0 "/></g></g><g transform="translate(625.181675, 95.635568)"><g><path d="M 30.453125 0 L 28.375 -5.3125 L 28.109375 -5.3125 C 26.304688 -3.050781 24.453125 -1.484375 22.546875 -0.609375 C 20.648438 0.265625 18.175781 0.703125 15.125 0.703125 C 11.363281 0.703125 8.40625 -0.367188 6.25 -2.515625 C 4.09375 -4.660156 3.015625 -7.71875 3.015625 -11.6875 C 3.015625 -15.84375 4.460938 -18.90625 7.359375 -20.875 C 10.265625 -22.84375 14.644531 -23.929688 20.5 -24.140625 L 27.296875 -24.359375 L 27.296875 -26.078125 C 27.296875 -30.035156 25.265625 -32.015625 21.203125 -32.015625 C 18.078125 -32.015625 14.40625 -31.070312 10.1875 -29.1875 L 6.65625 -36.390625 C 11.15625 -38.753906 16.144531 -39.9375 21.625 -39.9375 C 26.875 -39.9375 30.898438 -38.789062 33.703125 -36.5 C 36.503906 -34.21875 37.90625 -30.742188 37.90625 -26.078125 L 37.90625 0 Z M 27.296875 -18.125 L 23.171875 -17.984375 C 20.066406 -17.890625 17.753906 -17.328125 16.234375 -16.296875 C 14.722656 -15.273438 13.96875 -13.71875 13.96875 -11.625 C 13.96875 -8.613281 15.691406 -7.109375 19.140625 -7.109375 C 21.617188 -7.109375 23.597656 -7.816406 25.078125 -9.234375 C 26.554688 -10.660156 27.296875 -12.550781 27.296875 -14.90625 Z M 27.296875 -18.125 "/></g></g><g transform="translate(668.472279, 95.635568)"><g><path d="M 41.71875 0 L 31.046875 0 L 31.046875 -22.859375 C 31.046875 -25.679688 30.539062 -27.796875 29.53125 -29.203125 C 28.53125 -30.617188 26.9375 -31.328125 24.75 -31.328125 C 21.757812 -31.328125 19.597656 -30.328125 18.265625 -28.328125 C 16.929688 -26.335938 16.265625 -23.03125 16.265625 -18.40625 L 16.265625 0 L 5.59375 0 L 5.59375 -39.125 L 13.75 -39.125 L 15.1875 -34.125 L 15.78125 -34.125 C 16.96875 -36.007812 18.601562 -37.4375 20.6875 -38.40625 C 22.78125 -39.375 25.160156 -39.859375 27.828125 -39.859375 C 32.367188 -39.859375 35.816406 -38.625 38.171875 -36.15625 C 40.535156 -33.695312 41.71875 -30.148438 41.71875 -25.515625 Z M 41.71875 0 "/></g></g><g transform="translate(715.577496, 95.635568)"><g><path d="M 9.65625 -16.96875 L 9.65625 -19.5625 C 9.65625 -21.800781 10.132812 -23.75 11.09375 -25.40625 C 12.050781 -27.0625 13.800781 -28.820312 16.34375 -30.6875 C 18.789062 -32.4375 20.40625 -33.859375 21.1875 -34.953125 C 21.96875 -36.054688 22.359375 -37.285156 22.359375 -38.640625 C 22.359375 -40.148438 21.796875 -41.300781 20.671875 -42.09375 C 19.554688 -42.894531 18 -43.296875 16 -43.296875 C 12.5 -43.296875 8.507812 -42.148438 4.03125 -39.859375 L 0.203125 -47.53125 C 5.410156 -50.445312 10.929688 -51.90625 16.765625 -51.90625 C 21.566406 -51.90625 25.382812 -50.75 28.21875 -48.4375 C 31.050781 -46.125 32.46875 -43.046875 32.46875 -39.203125 C 32.46875 -36.628906 31.882812 -34.410156 30.71875 -32.546875 C 29.5625 -30.679688 27.347656 -28.582031 24.078125 -26.25 C 21.835938 -24.59375 20.421875 -23.332031 19.828125 -22.46875 C 19.234375 -21.601562 18.9375 -20.472656 18.9375 -19.078125 L 18.9375 -16.96875 Z M 8.53125 -5 C 8.53125 -6.957031 9.054688 -8.4375 10.109375 -9.4375 C 11.160156 -10.445312 12.691406 -10.953125 14.703125 -10.953125 C 16.640625 -10.953125 18.132812 -10.4375 19.1875 -9.40625 C 20.25 -8.382812 20.78125 -6.914062 20.78125 -5 C 20.78125 -3.15625 20.242188 -1.703125 19.171875 -0.640625 C 18.097656 0.410156 16.609375 0.9375 14.703125 0.9375 C 12.742188 0.9375 11.222656 0.421875 10.140625 -0.609375 C 9.066406 -1.648438 8.53125 -3.113281 8.53125 -5 Z M 8.53125 -5 "/></g></g></g><g fill="#278d46" fill-opacity="1"><g transform="translate(177.040519, 130.421809)"><g><path d="M 19.171875 0 L 14.203125 0 L 8.8125 -8.6875 L 6.96875 -7.359375 L 6.96875 0 L 2.59375 0 L 2.59375 -20.609375 L 6.96875 -20.609375 L 6.96875 -11.171875 L 8.6875 -13.59375 L 14.265625 -20.609375 L 19.109375 -20.609375 L 11.921875 -11.484375 Z M 19.171875 0 "/></g></g></g><g fill="#278d46" fill-opacity="1"><g transform="translate(196.20563, 130.421809)"><g><path d="M 6.546875 0 L 2.25 0 L 2.25 -21.921875 L 6.546875 -21.921875 Z M 6.546875 0 "/></g></g></g><g fill="#278d46" fill-opacity="1"><g transform="translate(205.013126, 130.421809)"><g><path d="M 2.078125 -19.828125 C 2.078125 -21.222656 2.851562 -21.921875 4.40625 -21.921875 C 5.96875 -21.921875 6.75 -21.222656 6.75 -19.828125 C 6.75 -19.160156 6.550781 -18.640625 6.15625 -18.265625 C 5.769531 -17.898438 5.1875 -17.71875 4.40625 -17.71875 C 2.851562 -17.71875 2.078125 -18.421875 2.078125 -19.828125 Z M 6.546875 0 L 2.25 0 L 2.25 -15.75 L 6.546875 -15.75 Z M 6.546875 0 "/></g></g></g><g fill="#278d46" fill-opacity="1"><g transform="translate(213.820622, 130.421809)"><g><path d="M 6.390625 -8.5625 L 8.25 -10.96875 L 12.671875 -15.75 L 17.515625 -15.75 L 11.265625 -8.921875 L 17.890625 0 L 12.9375 0 L 8.40625 -6.390625 L 6.546875 -4.90625 L 6.546875 0 L 2.25 0 L 2.25 -21.921875 L 6.546875 -21.921875 L 6.546875 -12.140625 L 6.328125 -8.5625 Z M 6.390625 -8.5625 "/></g></g></g><g fill="#278d46" fill-opacity="1"><g transform="translate(231.717454, 130.421809)"><g/></g></g><g fill="#278d46" fill-opacity="1"><g transform="translate(239.214394, 130.421809)"><g><path d="M 19.6875 -10.5 C 19.6875 -7.101562 18.71875 -4.503906 16.78125 -2.703125 C 14.851562 -0.898438 12.066406 0 8.421875 0 L 2.59375 0 L 2.59375 -20.609375 L 9.0625 -20.609375 C 12.425781 -20.609375 15.035156 -19.71875 16.890625 -17.9375 C 18.753906 -16.164062 19.6875 -13.6875 19.6875 -10.5 Z M 15.140625 -10.390625 C 15.140625 -14.804688 13.1875 -17.015625 9.28125 -17.015625 L 6.96875 -17.015625 L 6.96875 -3.609375 L 8.828125 -3.609375 C 13.035156 -3.609375 15.140625 -5.867188 15.140625 -10.390625 Z M 15.140625 -10.390625 "/></g></g></g><g fill="#278d46" fill-opacity="1"><g transform="translate(260.577856, 130.421809)"><g><path d="M 2.078125 -19.828125 C 2.078125 -21.222656 2.851562 -21.921875 4.40625 -21.921875 C 5.96875 -21.921875 6.75 -21.222656 6.75 -19.828125 C 6.75 -19.160156 6.550781 -18.640625 6.15625 -18.265625 C 5.769531 -17.898438 5.1875 -17.71875 4.40625 -17.71875 C 2.851562 -17.71875 2.078125 -18.421875 2.078125 -19.828125 Z M 6.546875 0 L 2.25 0 L 2.25 -15.75 L 6.546875 -15.75 Z M 6.546875 0 "/></g></g></g><g fill="#278d46" fill-opacity="1"><g transform="translate(269.385352, 130.421809)"><g><path d="M 13.25 -4.671875 C 13.25 -3.054688 12.6875 -1.828125 11.5625 -0.984375 C 10.4375 -0.140625 8.757812 0.28125 6.53125 0.28125 C 5.382812 0.28125 4.40625 0.203125 3.59375 0.046875 C 2.78125 -0.109375 2.023438 -0.335938 1.328125 -0.640625 L 1.328125 -4.1875 C 2.117188 -3.8125 3.015625 -3.492188 4.015625 -3.234375 C 5.023438 -2.984375 5.910156 -2.859375 6.671875 -2.859375 C 8.222656 -2.859375 9 -3.3125 9 -4.21875 C 9 -4.550781 8.894531 -4.820312 8.6875 -5.03125 C 8.488281 -5.25 8.132812 -5.488281 7.625 -5.75 C 7.113281 -6.019531 6.4375 -6.332031 5.59375 -6.6875 C 4.382812 -7.195312 3.492188 -7.664062 2.921875 -8.09375 C 2.359375 -8.53125 1.945312 -9.023438 1.6875 -9.578125 C 1.425781 -10.140625 1.296875 -10.832031 1.296875 -11.65625 C 1.296875 -13.050781 1.835938 -14.128906 2.921875 -14.890625 C 4.003906 -15.660156 5.539062 -16.046875 7.53125 -16.046875 C 9.4375 -16.046875 11.285156 -15.632812 13.078125 -14.8125 L 11.78125 -11.703125 C 10.988281 -12.046875 10.25 -12.320312 9.5625 -12.53125 C 8.882812 -12.75 8.1875 -12.859375 7.46875 -12.859375 C 6.195312 -12.859375 5.5625 -12.519531 5.5625 -11.84375 C 5.5625 -11.457031 5.765625 -11.117188 6.171875 -10.828125 C 6.585938 -10.546875 7.484375 -10.128906 8.859375 -9.578125 C 10.085938 -9.078125 10.988281 -8.609375 11.5625 -8.171875 C 12.132812 -7.742188 12.554688 -7.25 12.828125 -6.6875 C 13.109375 -6.125 13.25 -5.453125 13.25 -4.671875 Z M 13.25 -4.671875 "/></g></g></g><g fill="#278d46" fill-opacity="1"><g transform="translate(283.731001, 130.421809)"><g><path d="M 2.078125 -19.828125 C 2.078125 -21.222656 2.851562 -21.921875 4.40625 -21.921875 C 5.96875 -21.921875 6.75 -21.222656 6.75 -19.828125 C 6.75 -19.160156 6.550781 -18.640625 6.15625 -18.265625 C 5.769531 -17.898438 5.1875 -17.71875 4.40625 -17.71875 C 2.851562 -17.71875 2.078125 -18.421875 2.078125 -19.828125 Z M 6.546875 0 L 2.25 0 L 2.25 -15.75 L 6.546875 -15.75 Z M 6.546875 0 "/></g></g></g><g fill="#278d46" fill-opacity="1"><g transform="translate(292.538497, 130.421809)"><g><path d="M 16.796875 0 L 12.5 0 L 12.5 -9.203125 C 12.5 -10.335938 12.296875 -11.1875 11.890625 -11.75 C 11.484375 -12.320312 10.84375 -12.609375 9.96875 -12.609375 C 8.757812 -12.609375 7.882812 -12.207031 7.34375 -11.40625 C 6.8125 -10.601562 6.546875 -9.269531 6.546875 -7.40625 L 6.546875 0 L 2.25 0 L 2.25 -15.75 L 5.53125 -15.75 L 6.109375 -13.734375 L 6.359375 -13.734375 C 6.835938 -14.492188 7.492188 -15.066406 8.328125 -15.453125 C 9.171875 -15.847656 10.128906 -16.046875 11.203125 -16.046875 C 13.035156 -16.046875 14.425781 -15.550781 15.375 -14.5625 C 16.320312 -13.570312 16.796875 -12.140625 16.796875 -10.265625 Z M 16.796875 0 "/></g></g></g><g fill="#278d46" fill-opacity="1"><g transform="translate(311.50632, 130.421809)"><g><path d="M 2.078125 -19.828125 C 2.078125 -21.222656 2.851562 -21.921875 4.40625 -21.921875 C 5.96875 -21.921875 6.75 -21.222656 6.75 -19.828125 C 6.75 -19.160156 6.550781 -18.640625 6.15625 -18.265625 C 5.769531 -17.898438 5.1875 -17.71875 4.40625 -17.71875 C 2.851562 -17.71875 2.078125 -18.421875 2.078125 -19.828125 Z M 6.546875 0 L 2.25 0 L 2.25 -15.75 L 6.546875 -15.75 Z M 6.546875 0 "/></g></g></g><g fill="#278d46" fill-opacity="1"><g transform="translate(320.313816, 130.421809)"><g/></g></g><g fill="#278d46" fill-opacity="1"><g transform="translate(327.810756, 130.421809)"><g><path d="M 19.359375 -20.609375 L 19.359375 -7.265625 C 19.359375 -5.742188 19.015625 -4.410156 18.328125 -3.265625 C 17.648438 -2.117188 16.664062 -1.238281 15.375 -0.625 C 14.09375 -0.0195312 12.578125 0.28125 10.828125 0.28125 C 8.171875 0.28125 6.109375 -0.394531 4.640625 -1.75 C 3.179688 -3.113281 2.453125 -4.972656 2.453125 -7.328125 L 2.453125 -20.609375 L 6.8125 -20.609375 L 6.8125 -7.984375 C 6.8125 -6.398438 7.128906 -5.234375 7.765625 -4.484375 C 8.398438 -3.742188 9.457031 -3.375 10.9375 -3.375 C 12.363281 -3.375 13.394531 -3.75 14.03125 -4.5 C 14.675781 -5.25 15 -6.421875 15 -8.015625 L 15 -20.609375 Z M 19.359375 -20.609375 "/></g></g></g><g fill="#278d46" fill-opacity="1"><g transform="translate(349.625162, 130.421809)"><g><path d="M 16.796875 0 L 12.5 0 L 12.5 -9.203125 C 12.5 -10.335938 12.296875 -11.1875 11.890625 -11.75 C 11.484375 -12.320312 10.84375 -12.609375 9.96875 -12.609375 C 8.757812 -12.609375 7.882812 -12.207031 7.34375 -11.40625 C 6.8125 -10.601562 6.546875 -9.269531 6.546875 -7.40625 L 6.546875 0 L 2.25 0 L 2.25 -15.75 L 5.53125 -15.75 L 6.109375 -13.734375 L 6.359375 -13.734375 C 6.835938 -14.492188 7.492188 -15.066406 8.328125 -15.453125 C 9.171875 -15.847656 10.128906 -16.046875 11.203125 -16.046875 C 13.035156 -16.046875 14.425781 -15.550781 15.375 -14.5625 C 16.320312 -13.570312 16.796875 -12.140625 16.796875 -10.265625 Z M 16.796875 0 "/></g></g></g><g fill="#278d46" fill-opacity="1"><g transform="translate(368.592974, 130.421809)"><g><path d="M 8.890625 -3.140625 C 9.640625 -3.140625 10.539062 -3.304688 11.59375 -3.640625 L 11.59375 -0.4375 C 10.519531 0.0390625 9.207031 0.28125 7.65625 0.28125 C 5.9375 0.28125 4.679688 -0.148438 3.890625 -1.015625 C 3.109375 -1.890625 2.71875 -3.195312 2.71875 -4.9375 L 2.71875 -12.53125 L 0.65625 -12.53125 L 0.65625 -14.34375 L 3.03125 -15.78125 L 4.265625 -19.109375 L 7.015625 -19.109375 L 7.015625 -15.75 L 11.421875 -15.75 L 11.421875 -12.53125 L 7.015625 -12.53125 L 7.015625 -4.9375 C 7.015625 -4.320312 7.1875 -3.867188 7.53125 -3.578125 C 7.875 -3.285156 8.328125 -3.140625 8.890625 -3.140625 Z M 8.890625 -3.140625 "/></g></g></g><g fill="#278d46" fill-opacity="1"><g transform="translate(381.120744, 130.421809)"><g><path d="M 13.421875 0 L 12.84375 -2.015625 L 12.609375 -2.015625 C 12.148438 -1.285156 11.5 -0.71875 10.65625 -0.3125 C 9.8125 0.0820312 8.847656 0.28125 7.765625 0.28125 C 5.910156 0.28125 4.515625 -0.210938 3.578125 -1.203125 C 2.640625 -2.191406 2.171875 -3.617188 2.171875 -5.484375 L 2.171875 -15.75 L 6.46875 -15.75 L 6.46875 -6.546875 C 6.46875 -5.410156 6.671875 -4.554688 7.078125 -3.984375 C 7.484375 -3.421875 8.125 -3.140625 9 -3.140625 C 10.207031 -3.140625 11.078125 -3.539062 11.609375 -4.34375 C 12.148438 -5.144531 12.421875 -6.476562 12.421875 -8.34375 L 12.421875 -15.75 L 16.71875 -15.75 L 16.71875 0 Z M 13.421875 0 "/></g></g></g><g fill="#278d46" fill-opacity="1"><g transform="translate(400.088567, 130.421809)"><g><path d="M 6.390625 -8.5625 L 8.25 -10.96875 L 12.671875 -15.75 L 17.515625 -15.75 L 11.265625 -8.921875 L 17.890625 0 L 12.9375 0 L 8.40625 -6.390625 L 6.546875 -4.90625 L 6.546875 0 L 2.25 0 L 2.25 -21.921875 L 6.546875 -21.921875 L 6.546875 -12.140625 L 6.328125 -8.5625 Z M 6.390625 -8.5625 "/></g></g></g><g fill="#278d46" fill-opacity="1"><g transform="translate(417.985399, 130.421809)"><g/></g></g><g fill="#278d46" fill-opacity="1"><g transform="translate(425.482339, 130.421809)"><g><path d="M 19.46875 0 L 15.125 0 L 15.125 -8.890625 L 6.96875 -8.890625 L 6.96875 0 L 2.59375 0 L 2.59375 -20.609375 L 6.96875 -20.609375 L 6.96875 -12.53125 L 15.125 -12.53125 L 15.125 -20.609375 L 19.46875 -20.609375 Z M 19.46875 0 "/></g></g></g><g fill="#278d46" fill-opacity="1"><g transform="translate(447.564504, 130.421809)"><g><path d="M 13.421875 0 L 12.84375 -2.015625 L 12.609375 -2.015625 C 12.148438 -1.285156 11.5 -0.71875 10.65625 -0.3125 C 9.8125 0.0820312 8.847656 0.28125 7.765625 0.28125 C 5.910156 0.28125 4.515625 -0.210938 3.578125 -1.203125 C 2.640625 -2.191406 2.171875 -3.617188 2.171875 -5.484375 L 2.171875 -15.75 L 6.46875 -15.75 L 6.46875 -6.546875 C 6.46875 -5.410156 6.671875 -4.554688 7.078125 -3.984375 C 7.484375 -3.421875 8.125 -3.140625 9 -3.140625 C 10.207031 -3.140625 11.078125 -3.539062 11.609375 -4.34375 C 12.148438 -5.144531 12.421875 -6.476562 12.421875 -8.34375 L 12.421875 -15.75 L 16.71875 -15.75 L 16.71875 0 Z M 13.421875 0 "/></g></g></g><g fill="#278d46" fill-opacity="1"><g transform="translate(466.532327, 130.421809)"><g><path d="M 11.015625 -16.046875 C 12.878906 -16.046875 14.335938 -15.320312 15.390625 -13.875 C 16.441406 -12.425781 16.96875 -10.4375 16.96875 -7.90625 C 16.96875 -5.300781 16.425781 -3.285156 15.34375 -1.859375 C 14.257812 -0.429688 12.78125 0.28125 10.90625 0.28125 C 9.050781 0.28125 7.597656 -0.390625 6.546875 -1.734375 L 6.25 -1.734375 L 5.53125 0 L 2.25 0 L 2.25 -21.921875 L 6.546875 -21.921875 L 6.546875 -16.828125 C 6.546875 -16.179688 6.492188 -15.144531 6.390625 -13.71875 L 6.546875 -13.71875 C 7.554688 -15.269531 9.046875 -16.046875 11.015625 -16.046875 Z M 9.640625 -12.609375 C 8.578125 -12.609375 7.800781 -12.28125 7.3125 -11.625 C 6.820312 -10.976562 6.566406 -9.90625 6.546875 -8.40625 L 6.546875 -7.9375 C 6.546875 -6.238281 6.796875 -5.023438 7.296875 -4.296875 C 7.804688 -3.566406 8.601562 -3.203125 9.6875 -3.203125 C 10.570312 -3.203125 11.273438 -3.609375 11.796875 -4.421875 C 12.316406 -5.234375 12.578125 -6.414062 12.578125 -7.96875 C 12.578125 -9.507812 12.3125 -10.664062 11.78125 -11.4375 C 11.257812 -12.21875 10.546875 -12.609375 9.640625 -12.609375 Z M 9.640625 -12.609375 "/></g></g></g><g fill="#278d46" fill-opacity="1"><g transform="translate(484.795551, 130.421809)"><g><path d="M 13.421875 0 L 12.84375 -2.015625 L 12.609375 -2.015625 C 12.148438 -1.285156 11.5 -0.71875 10.65625 -0.3125 C 9.8125 0.0820312 8.847656 0.28125 7.765625 0.28125 C 5.910156 0.28125 4.515625 -0.210938 3.578125 -1.203125 C 2.640625 -2.191406 2.171875 -3.617188 2.171875 -5.484375 L 2.171875 -15.75 L 6.46875 -15.75 L 6.46875 -6.546875 C 6.46875 -5.410156 6.671875 -4.554688 7.078125 -3.984375 C 7.484375 -3.421875 8.125 -3.140625 9 -3.140625 C 10.207031 -3.140625 11.078125 -3.539062 11.609375 -4.34375 C 12.148438 -5.144531 12.421875 -6.476562 12.421875 -8.34375 L 12.421875 -15.75 L 16.71875 -15.75 L 16.71875 0 Z M 13.421875 0 "/></g></g></g><g fill="#278d46" fill-opacity="1"><g transform="translate(503.763374, 130.421809)"><g><path d="M 16.796875 0 L 12.5 0 L 12.5 -9.203125 C 12.5 -10.335938 12.296875 -11.1875 11.890625 -11.75 C 11.484375 -12.320312 10.84375 -12.609375 9.96875 -12.609375 C 8.757812 -12.609375 7.882812 -12.207031 7.34375 -11.40625 C 6.8125 -10.601562 6.546875 -9.269531 6.546875 -7.40625 L 6.546875 0 L 2.25 0 L 2.25 -15.75 L 5.53125 -15.75 L 6.109375 -13.734375 L 6.359375 -13.734375 C 6.835938 -14.492188 7.492188 -15.066406 8.328125 -15.453125 C 9.171875 -15.847656 10.128906 -16.046875 11.203125 -16.046875 C 13.035156 -16.046875 14.425781 -15.550781 15.375 -14.5625 C 16.320312 -13.570312 16.796875 -12.140625 16.796875 -10.265625 Z M 16.796875 0 "/></g></g></g><g fill="#278d46" fill-opacity="1"><g transform="translate(522.731196, 130.421809)"><g><path d="M 15.96875 -15.75 L 15.96875 -13.5625 L 13.5 -12.9375 C 13.945312 -12.226562 14.171875 -11.4375 14.171875 -10.5625 C 14.171875 -8.875 13.582031 -7.554688 12.40625 -6.609375 C 11.226562 -5.671875 9.59375 -5.203125 7.5 -5.203125 L 6.71875 -5.234375 L 6.09375 -5.3125 C 5.644531 -4.976562 5.421875 -4.601562 5.421875 -4.1875 C 5.421875 -3.5625 6.210938 -3.25 7.796875 -3.25 L 10.46875 -3.25 C 12.195312 -3.25 13.515625 -2.878906 14.421875 -2.140625 C 15.328125 -1.398438 15.78125 -0.3125 15.78125 1.125 C 15.78125 2.96875 15.007812 4.394531 13.46875 5.40625 C 11.9375 6.425781 9.734375 6.9375 6.859375 6.9375 C 4.660156 6.9375 2.976562 6.550781 1.8125 5.78125 C 0.65625 5.019531 0.078125 3.945312 0.078125 2.5625 C 0.078125 1.613281 0.375 0.816406 0.96875 0.171875 C 1.5625 -0.460938 2.429688 -0.914062 3.578125 -1.1875 C 3.140625 -1.375 2.753906 -1.679688 2.421875 -2.109375 C 2.097656 -2.535156 1.9375 -2.988281 1.9375 -3.46875 C 1.9375 -4.070312 2.109375 -4.570312 2.453125 -4.96875 C 2.796875 -5.363281 3.296875 -5.753906 3.953125 -6.140625 C 3.128906 -6.492188 2.472656 -7.066406 1.984375 -7.859375 C 1.503906 -8.648438 1.265625 -9.582031 1.265625 -10.65625 C 1.265625 -12.375 1.820312 -13.703125 2.9375 -14.640625 C 4.0625 -15.578125 5.660156 -16.046875 7.734375 -16.046875 C 8.179688 -16.046875 8.707031 -16.003906 9.3125 -15.921875 C 9.914062 -15.847656 10.300781 -15.789062 10.46875 -15.75 Z M 3.8125 2.21875 C 3.8125 2.8125 4.09375 3.273438 4.65625 3.609375 C 5.226562 3.953125 6.023438 4.125 7.046875 4.125 C 8.585938 4.125 9.796875 3.910156 10.671875 3.484375 C 11.546875 3.066406 11.984375 2.492188 11.984375 1.765625 C 11.984375 1.171875 11.722656 0.757812 11.203125 0.53125 C 10.679688 0.3125 9.882812 0.203125 8.8125 0.203125 L 6.578125 0.203125 C 5.785156 0.203125 5.125 0.382812 4.59375 0.75 C 4.070312 1.125 3.8125 1.613281 3.8125 2.21875 Z M 5.375 -10.59375 C 5.375 -9.738281 5.566406 -9.0625 5.953125 -8.5625 C 6.335938 -8.070312 6.929688 -7.828125 7.734375 -7.828125 C 8.546875 -7.828125 9.140625 -8.070312 9.515625 -8.5625 C 9.890625 -9.0625 10.078125 -9.738281 10.078125 -10.59375 C 10.078125 -12.488281 9.296875 -13.4375 7.734375 -13.4375 C 6.160156 -13.4375 5.375 -12.488281 5.375 -10.59375 Z M 5.375 -10.59375 "/></g></g></g><g fill="#278d46" fill-opacity="1"><g transform="translate(539.035644, 130.421809)"><g><path d="M 2.078125 -19.828125 C 2.078125 -21.222656 2.851562 -21.921875 4.40625 -21.921875 C 5.96875 -21.921875 6.75 -21.222656 6.75 -19.828125 C 6.75 -19.160156 6.550781 -18.640625 6.15625 -18.265625 C 5.769531 -17.898438 5.1875 -17.71875 4.40625 -17.71875 C 2.851562 -17.71875 2.078125 -18.421875 2.078125 -19.828125 Z M 6.546875 0 L 2.25 0 L 2.25 -15.75 L 6.546875 -15.75 Z M 6.546875 0 "/></g></g></g><g fill="#278d46" fill-opacity="1"><g transform="translate(547.843128, 130.421809)"><g/></g></g><g fill="#278d46" fill-opacity="1"><g transform="translate(555.340069, 130.421809)"><g><path d="M 6.96875 -10.90625 L 8.40625 -10.90625 C 9.738281 -10.90625 10.738281 -11.171875 11.40625 -11.703125 C 12.082031 -12.234375 12.421875 -13.003906 12.421875 -14.015625 C 12.421875 -15.046875 12.140625 -15.800781 11.578125 -16.28125 C 11.015625 -16.769531 10.140625 -17.015625 8.953125 -17.015625 L 6.96875 -17.015625 Z M 16.828125 -14.171875 C 16.828125 -11.953125 16.132812 -10.253906 14.75 -9.078125 C 13.363281 -7.910156 11.390625 -7.328125 8.828125 -7.328125 L 6.96875 -7.328125 L 6.96875 0 L 2.59375 0 L 2.59375 -20.609375 L 9.171875 -20.609375 C 11.671875 -20.609375 13.570312 -20.066406 14.875 -18.984375 C 16.175781 -17.910156 16.828125 -16.304688 16.828125 -14.171875 Z M 16.828125 -14.171875 "/></g></g></g><g fill="#278d46" fill-opacity="1"><g transform="translate(573.462395, 130.421809)"><g><path d="M 12.265625 0 L 11.421875 -2.140625 L 11.3125 -2.140625 C 10.59375 -1.234375 9.847656 -0.601562 9.078125 -0.25 C 8.316406 0.101562 7.320312 0.28125 6.09375 0.28125 C 4.570312 0.28125 3.378906 -0.148438 2.515625 -1.015625 C 1.648438 -1.878906 1.21875 -3.109375 1.21875 -4.703125 C 1.21875 -6.378906 1.800781 -7.613281 2.96875 -8.40625 C 4.132812 -9.195312 5.894531 -9.632812 8.25 -9.71875 L 10.984375 -9.8125 L 10.984375 -10.5 C 10.984375 -12.09375 10.171875 -12.890625 8.546875 -12.890625 C 7.285156 -12.890625 5.800781 -12.507812 4.09375 -11.75 L 2.671875 -14.65625 C 4.484375 -15.601562 6.492188 -16.078125 8.703125 -16.078125 C 10.816406 -16.078125 12.4375 -15.613281 13.5625 -14.6875 C 14.695312 -13.769531 15.265625 -12.375 15.265625 -10.5 L 15.265625 0 Z M 10.984375 -7.296875 L 9.328125 -7.25 C 8.078125 -7.207031 7.144531 -6.976562 6.53125 -6.5625 C 5.925781 -6.15625 5.625 -5.523438 5.625 -4.671875 C 5.625 -3.460938 6.316406 -2.859375 7.703125 -2.859375 C 8.703125 -2.859375 9.5 -3.144531 10.09375 -3.71875 C 10.6875 -4.289062 10.984375 -5.050781 10.984375 -6 Z M 10.984375 -7.296875 "/></g></g></g><g fill="#278d46" fill-opacity="1"><g transform="translate(590.89418, 130.421809)"><g><path d="M 16.796875 0 L 12.5 0 L 12.5 -9.203125 C 12.5 -10.335938 12.296875 -11.1875 11.890625 -11.75 C 11.484375 -12.320312 10.84375 -12.609375 9.96875 -12.609375 C 8.757812 -12.609375 7.882812 -12.207031 7.34375 -11.40625 C 6.8125 -10.601562 6.546875 -9.269531 6.546875 -7.40625 L 6.546875 0 L 2.25 0 L 2.25 -15.75 L 5.53125 -15.75 L 6.109375 -13.734375 L 6.359375 -13.734375 C 6.835938 -14.492188 7.492188 -15.066406 8.328125 -15.453125 C 9.171875 -15.847656 10.128906 -16.046875 11.203125 -16.046875 C 13.035156 -16.046875 14.425781 -15.550781 15.375 -14.5625 C 16.320312 -13.570312 16.796875 -12.140625 16.796875 -10.265625 Z M 16.796875 0 "/></g></g></g><g fill="#278d46" fill-opacity="1"><g transform="translate(609.86198, 130.421809)"><g><path d="M 2.078125 -19.828125 C 2.078125 -21.222656 2.851562 -21.921875 4.40625 -21.921875 C 5.96875 -21.921875 6.75 -21.222656 6.75 -19.828125 C 6.75 -19.160156 6.550781 -18.640625 6.15625 -18.265625 C 5.769531 -17.898438 5.1875 -17.71875 4.40625 -17.71875 C 2.851562 -17.71875 2.078125 -18.421875 2.078125 -19.828125 Z M 6.546875 0 L 2.25 0 L 2.25 -15.75 L 6.546875 -15.75 Z M 6.546875 0 "/></g></g></g><g fill="#278d46" fill-opacity="1"><g transform="translate(618.669465, 130.421809)"><g><path d="M 8.890625 -3.140625 C 9.640625 -3.140625 10.539062 -3.304688 11.59375 -3.640625 L 11.59375 -0.4375 C 10.519531 0.0390625 9.207031 0.28125 7.65625 0.28125 C 5.9375 0.28125 4.679688 -0.148438 3.890625 -1.015625 C 3.109375 -1.890625 2.71875 -3.195312 2.71875 -4.9375 L 2.71875 -12.53125 L 0.65625 -12.53125 L 0.65625 -14.34375 L 3.03125 -15.78125 L 4.265625 -19.109375 L 7.015625 -19.109375 L 7.015625 -15.75 L 11.421875 -15.75 L 11.421875 -12.53125 L 7.015625 -12.53125 L 7.015625 -4.9375 C 7.015625 -4.320312 7.1875 -3.867188 7.53125 -3.578125 C 7.875 -3.285156 8.328125 -3.140625 8.890625 -3.140625 Z M 8.890625 -3.140625 "/></g></g></g><g fill="#278d46" fill-opacity="1"><g transform="translate(631.197235, 130.421809)"><g><path d="M 2.078125 -19.828125 C 2.078125 -21.222656 2.851562 -21.921875 4.40625 -21.921875 C 5.96875 -21.921875 6.75 -21.222656 6.75 -19.828125 C 6.75 -19.160156 6.550781 -18.640625 6.15625 -18.265625 C 5.769531 -17.898438 5.1875 -17.71875 4.40625 -17.71875 C 2.851562 -17.71875 2.078125 -18.421875 2.078125 -19.828125 Z M 6.546875 0 L 2.25 0 L 2.25 -15.75 L 6.546875 -15.75 Z M 6.546875 0 "/></g></g></g><g fill="#278d46" fill-opacity="1"><g transform="translate(640.00472, 130.421809)"><g><path d="M 12.265625 0 L 11.421875 -2.140625 L 11.3125 -2.140625 C 10.59375 -1.234375 9.847656 -0.601562 9.078125 -0.25 C 8.316406 0.101562 7.320312 0.28125 6.09375 0.28125 C 4.570312 0.28125 3.378906 -0.148438 2.515625 -1.015625 C 1.648438 -1.878906 1.21875 -3.109375 1.21875 -4.703125 C 1.21875 -6.378906 1.800781 -7.613281 2.96875 -8.40625 C 4.132812 -9.195312 5.894531 -9.632812 8.25 -9.71875 L 10.984375 -9.8125 L 10.984375 -10.5 C 10.984375 -12.09375 10.171875 -12.890625 8.546875 -12.890625 C 7.285156 -12.890625 5.800781 -12.507812 4.09375 -11.75 L 2.671875 -14.65625 C 4.484375 -15.601562 6.492188 -16.078125 8.703125 -16.078125 C 10.816406 -16.078125 12.4375 -15.613281 13.5625 -14.6875 C 14.695312 -13.769531 15.265625 -12.375 15.265625 -10.5 L 15.265625 0 Z M 10.984375 -7.296875 L 9.328125 -7.25 C 8.078125 -7.207031 7.144531 -6.976562 6.53125 -6.5625 C 5.925781 -6.15625 5.625 -5.523438 5.625 -4.671875 C 5.625 -3.460938 6.316406 -2.859375 7.703125 -2.859375 C 8.703125 -2.859375 9.5 -3.144531 10.09375 -3.71875 C 10.6875 -4.289062 10.984375 -5.050781 10.984375 -6 Z M 10.984375 -7.296875 "/></g></g></g><g fill="#278d46" fill-opacity="1"><g transform="translate(657.436505, 130.421809)"><g/></g></g><g fill="#278d46" fill-opacity="1"><g transform="translate(664.933445, 130.421809)"><g><path d="M 6.96875 -10.90625 L 8.40625 -10.90625 C 9.738281 -10.90625 10.738281 -11.171875 11.40625 -11.703125 C 12.082031 -12.234375 12.421875 -13.003906 12.421875 -14.015625 C 12.421875 -15.046875 12.140625 -15.800781 11.578125 -16.28125 C 11.015625 -16.769531 10.140625 -17.015625 8.953125 -17.015625 L 6.96875 -17.015625 Z M 16.828125 -14.171875 C 16.828125 -11.953125 16.132812 -10.253906 14.75 -9.078125 C 13.363281 -7.910156 11.390625 -7.328125 8.828125 -7.328125 L 6.96875 -7.328125 L 6.96875 0 L 2.59375 0 L 2.59375 -20.609375 L 9.171875 -20.609375 C 11.671875 -20.609375 13.570312 -20.066406 14.875 -18.984375 C 16.175781 -17.910156 16.828125 -16.304688 16.828125 -14.171875 Z M 16.828125 -14.171875 "/></g></g></g><g fill="#278d46" fill-opacity="1"><g transform="translate(683.055772, 130.421809)"><g><path d="M 6.96875 -10.90625 L 8.40625 -10.90625 C 9.738281 -10.90625 10.738281 -11.171875 11.40625 -11.703125 C 12.082031 -12.234375 12.421875 -13.003906 12.421875 -14.015625 C 12.421875 -15.046875 12.140625 -15.800781 11.578125 -16.28125 C 11.015625 -16.769531 10.140625 -17.015625 8.953125 -17.015625 L 6.96875 -17.015625 Z M 16.828125 -14.171875 C 16.828125 -11.953125 16.132812 -10.253906 14.75 -9.078125 C 13.363281 -7.910156 11.390625 -7.328125 8.828125 -7.328125 L 6.96875 -7.328125 L 6.96875 0 L 2.59375 0 L 2.59375 -20.609375 L 9.171875 -20.609375 C 11.671875 -20.609375 13.570312 -20.066406 14.875 -18.984375 C 16.175781 -17.910156 16.828125 -16.304688 16.828125 -14.171875 Z M 16.828125 -14.171875 "/></g></g></g><g fill="#278d46" fill-opacity="1"><g transform="translate(701.178098, 130.421809)"><g><path d="M 19.6875 -10.5 C 19.6875 -7.101562 18.71875 -4.503906 16.78125 -2.703125 C 14.851562 -0.898438 12.066406 0 8.421875 0 L 2.59375 0 L 2.59375 -20.609375 L 9.0625 -20.609375 C 12.425781 -20.609375 15.035156 -19.71875 16.890625 -17.9375 C 18.753906 -16.164062 19.6875 -13.6875 19.6875 -10.5 Z M 15.140625 -10.390625 C 15.140625 -14.804688 13.1875 -17.015625 9.28125 -17.015625 L 6.96875 -17.015625 L 6.96875 -3.609375 L 8.828125 -3.609375 C 13.035156 -3.609375 15.140625 -5.867188 15.140625 -10.390625 Z M 15.140625 -10.390625 "/></g></g></g><g fill="#278d46" fill-opacity="1"><g transform="translate(722.54156, 130.421809)"><g><path d="M 2.59375 -20.609375 L 9 -20.609375 C 11.925781 -20.609375 14.046875 -20.191406 15.359375 -19.359375 C 16.679688 -18.523438 17.34375 -17.203125 17.34375 -15.390625 C 17.34375 -14.160156 17.050781 -13.148438 16.46875 -12.359375 C 15.894531 -11.566406 15.128906 -11.09375 14.171875 -10.9375 L 14.171875 -10.796875 C 15.484375 -10.503906 16.425781 -9.957031 17 -9.15625 C 17.582031 -8.363281 17.875 -7.300781 17.875 -5.96875 C 17.875 -4.09375 17.191406 -2.628906 15.828125 -1.578125 C 14.472656 -0.523438 12.628906 0 10.296875 0 L 2.59375 0 Z M 6.96875 -12.4375 L 9.5 -12.4375 C 10.675781 -12.4375 11.53125 -12.617188 12.0625 -12.984375 C 12.59375 -13.359375 12.859375 -13.96875 12.859375 -14.8125 C 12.859375 -15.601562 12.566406 -16.164062 11.984375 -16.5 C 11.410156 -16.84375 10.503906 -17.015625 9.265625 -17.015625 L 6.96875 -17.015625 Z M 6.96875 -8.96875 L 6.96875 -3.609375 L 9.8125 -3.609375 C 11.007812 -3.609375 11.894531 -3.835938 12.46875 -4.296875 C 13.039062 -4.753906 13.328125 -5.457031 13.328125 -6.40625 C 13.328125 -8.113281 12.109375 -8.96875 9.671875 -8.96875 Z M 6.96875 -8.96875 "/></g></g></g></svg>